<svg width="20" height="20" viewBox="0 0 20 20" fill="none" xmlns="http://www.w3.org/2000/svg">
<path d="M4.1843 19.0004C5.84263 19.0004 7.18696 17.655 7.18696 15.9953C7.18696 14.3357 5.84263 12.9902 4.1843 12.9902C2.52598 12.9902 1.18164 14.3357 1.18164 15.9953C1.18164 17.655 2.52598 19.0004 4.1843 19.0004Z" stroke="#909090" stroke-width="1.5" stroke-linecap="round" stroke-linejoin="round"/>
<path d="M16.1789 15.4037C17.8373 15.4037 19.1816 14.0583 19.1816 12.3987C19.1816 10.739 17.8373 9.39355 16.1789 9.39355C14.5206 9.39355 13.1763 10.739 13.1763 12.3987C13.1763 14.0583 14.5206 15.4037 16.1789 15.4037Z" stroke="#909090" stroke-width="1.5" stroke-linecap="round" stroke-linejoin="round"/>
<path d="M7.18698 15.9949V5.39715C7.18027 4.89864 7.33109 4.41075 7.61791 4.00312C7.90474 3.5955 8.3129 3.28899 8.78414 3.12734L15.9714 1.12927C16.33 1.00548 16.7132 0.969899 17.0885 1.02554C17.4638 1.08119 17.8201 1.22642 18.1275 1.44896C18.4334 1.6739 18.6824 1.9675 18.8543 2.30618C19.0263 2.64486 19.1165 3.01918 19.1178 3.39908V11.5802" stroke="#909090" stroke-width="1.5" stroke-linecap="round" stroke-linejoin="round"/>
</svg>
