<svg width="20" height="20" viewBox="0 0 20 20" fill="none" xmlns="http://www.w3.org/2000/svg">
<path d="M4.00266 19.0008C5.66099 19.0008 7.00532 17.6554 7.00532 15.9957C7.00532 14.336 5.66099 12.9906 4.00266 12.9906C2.34434 12.9906 1 14.336 1 15.9957C1 17.6554 2.34434 19.0008 4.00266 19.0008Z" stroke="#E84625" stroke-width="1.5" stroke-linecap="round" stroke-linejoin="round"/>
<path d="M15.9973 15.4039C17.6556 15.4039 19 14.0584 19 12.3988C19 10.7391 17.6556 9.39368 15.9973 9.39368C14.339 9.39368 12.9946 10.7391 12.9946 12.3988C12.9946 14.0584 14.339 15.4039 15.9973 15.4039Z" stroke="#E84625" stroke-width="1.5" stroke-linecap="round" stroke-linejoin="round"/>
<path d="M7.00534 15.9954V5.39763C6.99863 4.89912 7.14944 4.41123 7.43627 4.00361C7.72309 3.59599 8.13126 3.28948 8.6025 3.12783L15.7897 1.12976C16.1484 1.00597 16.5315 0.970387 16.9068 1.02603C17.2821 1.08167 17.6385 1.2269 17.9459 1.44945C18.2518 1.67439 18.5007 1.96799 18.6727 2.30667C18.8447 2.64535 18.9349 3.01966 18.9361 3.39957V11.5807" stroke="#E84625" stroke-width="1.5" stroke-linecap="round" stroke-linejoin="round"/>
</svg>
