<svg width="20" height="20" viewBox="0 0 20 20" fill="none" xmlns="http://www.w3.org/2000/svg">
<path d="M10.1821 18.1831C14.7016 18.1831 18.3654 14.5193 18.3654 9.99974C18.3654 5.48021 14.7016 1.81641 10.1821 1.81641C5.66258 1.81641 1.99878 5.48021 1.99878 9.99974C1.99878 14.5193 5.66258 18.1831 10.1821 18.1831Z" stroke="#909090" stroke-width="1.2275" stroke-linecap="round" stroke-linejoin="round"/>
<path d="M6.90875 2.63477H7.72709C6.13134 7.41383 6.13134 12.5857 7.72709 17.3648H6.90875" stroke="#909090" stroke-width="1.2275" stroke-linecap="round" stroke-linejoin="round"/>
<path d="M12.637 2.63477C14.2327 7.41383 14.2327 12.5857 12.637 17.3648" stroke="#909090" stroke-width="1.2275" stroke-linecap="round" stroke-linejoin="round"/>
<path d="M2.81689 13.2734V12.4551C7.59596 14.0508 12.7678 14.0508 17.5469 12.4551V13.2734" stroke="#909090" stroke-width="1.2275" stroke-linecap="round" stroke-linejoin="round"/>
<path d="M2.81689 7.54496C7.59596 5.94921 12.7678 5.94921 17.5469 7.54496" stroke="#909090" stroke-width="1.2275" stroke-linecap="round" stroke-linejoin="round"/>
</svg>
