<svg width="48" height="48" viewBox="0 0 48 48" fill="none" xmlns="http://www.w3.org/2000/svg">
<path d="M20.2666 18.9785L20.2866 31.9885L30.5166 25.4685L20.2666 18.9785Z" stroke="white" stroke-width="3" stroke-linecap="round" stroke-linejoin="round"/>
<path d="M11.627 5.07812L17.907 7.52813L15.457 13.7981" stroke="white" stroke-width="3" stroke-linecap="round" stroke-linejoin="round"/>
<path d="M17.8869 7.53906C13.8829 8.96521 10.5035 11.7464 8.33354 15.4012C6.16361 19.056 5.33975 23.3544 6.00455 27.5526C6.66934 31.7507 8.78096 35.5843 11.9739 38.3899C15.1669 41.1954 19.2403 42.7964 23.489 42.9157C27.7378 43.0349 31.8946 41.665 35.2399 39.043C38.5852 36.421 40.9086 32.7119 41.8079 28.5577C42.7071 24.4034 42.1257 20.0655 40.1642 16.2948C38.2028 12.524 34.9847 9.5576 31.0669 7.90906" stroke="white" stroke-width="3" stroke-linecap="round" stroke-linejoin="round"/>
</svg>
