<svg width="16" height="17" viewBox="0 0 16 17" fill="none" xmlns="http://www.w3.org/2000/svg">
<path d="M3.33325 7.16634H4.66659C5.99992 7.16634 6.66659 6.49967 6.66659 5.16634V3.83301C6.66659 2.49967 5.99992 1.83301 4.66659 1.83301H3.33325C1.99992 1.83301 1.33325 2.49967 1.33325 3.83301V5.16634C1.33325 6.49967 1.99992 7.16634 3.33325 7.16634Z" stroke="#E84625" stroke-miterlimit="10" stroke-linecap="round" stroke-linejoin="round"/>
<path d="M11.3333 7.16634H12.6666C13.9999 7.16634 14.6666 6.49967 14.6666 5.16634V3.83301C14.6666 2.49967 13.9999 1.83301 12.6666 1.83301H11.3333C9.99992 1.83301 9.33325 2.49967 9.33325 3.83301V5.16634C9.33325 6.49967 9.99992 7.16634 11.3333 7.16634Z" stroke="#E84625" stroke-miterlimit="10" stroke-linecap="round" stroke-linejoin="round"/>
<path d="M11.3333 15.1663H12.6666C13.9999 15.1663 14.6666 14.4997 14.6666 13.1663V11.833C14.6666 10.4997 13.9999 9.83301 12.6666 9.83301H11.3333C9.99992 9.83301 9.33325 10.4997 9.33325 11.833V13.1663C9.33325 14.4997 9.99992 15.1663 11.3333 15.1663Z" stroke="#E84625" stroke-miterlimit="10" stroke-linecap="round" stroke-linejoin="round"/>
<path d="M3.33325 15.1663H4.66659C5.99992 15.1663 6.66659 14.4997 6.66659 13.1663V11.833C6.66659 10.4997 5.99992 9.83301 4.66659 9.83301H3.33325C1.99992 9.83301 1.33325 10.4997 1.33325 11.833V13.1663C1.33325 14.4997 1.99992 15.1663 3.33325 15.1663Z" stroke="#E84625" stroke-miterlimit="10" stroke-linecap="round" stroke-linejoin="round"/>
</svg>
