<svg width="25" height="24" viewBox="0 0 25 24" fill="none" xmlns="http://www.w3.org/2000/svg">
<path d="M5.71202 24H0.612007V7.95H5.71202V24ZM3.16201 5.7C1.51201 5.7 0.312012 4.5 0.312012 2.85C0.312012 1.2 1.66201 0 3.16201 0C4.81201 0 6.01202 1.2 6.01202 2.85C6.01202 4.5 4.81201 5.7 3.16201 5.7ZM24.312 24H19.212V15.3C19.212 12.75 18.162 12 16.662 12C15.162 12 13.662 13.2 13.662 15.45V24H8.56201V7.95H13.362V10.2C13.812 9.15 15.612 7.5 18.162 7.5C21.012 7.5 24.012 9.15 24.012 14.1V24H24.312Z" fill="white"/>
</svg>
