<svg width="25" height="20" viewBox="0 0 25 20" fill="none" xmlns="http://www.w3.org/2000/svg">
<path d="M24.6155 2.5C23.7155 2.95 22.8155 3.1 21.7655 3.25C22.8155 2.65 23.5655 1.75 23.8655 0.55C22.9655 1.15 21.9155 1.45 20.7155 1.75C19.8155 0.85 18.4655 0.25 17.1155 0.25C13.9655 0.25 11.5655 3.25 12.3155 6.25C8.26548 6.1 4.66548 4.15 2.11548 1.15C0.765479 3.4 1.51548 6.25 3.61548 7.75C2.86548 7.75 2.11548 7.45 1.36548 7.15C1.36548 9.4 3.01548 11.5 5.26548 12.1C4.51548 12.25 3.76548 12.4 3.01548 12.25C3.61548 14.2 5.41548 15.7 7.66548 15.7C5.86548 17.05 3.16548 17.8 0.615479 17.5C2.86548 18.85 5.41548 19.75 8.11548 19.75C17.2655 19.75 22.3655 12.1 22.0655 5.05C23.1155 4.45 24.0155 3.55 24.6155 2.5Z" fill="white"/>
</svg>
